<svg xmlns="http://www.w3.org/2000/svg" xmlns:xlink="http://www.w3.org/1999/xlink" viewBox="0 0 4018 2223"><g transform="translate(1 1)" id="ss3827097603_1"><path d="M 209.188 418.375 C 250.561 418.375 291.005 406.106 325.406 383.121 C 359.807 360.135 386.619 327.464 402.452 289.24 C 418.285 251.016 422.427 208.956 414.356 168.377 C 406.284 127.799 386.361 90.525 357.105 61.27 C 327.85 32.014 290.576 12.091 249.998 4.02 C 209.42 -4.052 167.359 0.091 129.135 15.924 C 90.911 31.756 58.24 58.569 35.255 92.969 C 12.269 127.37 0 167.814 0 209.188 L 209.188 209.188 Z M 209.188 418.375 C 181.717 418.375 154.515 423.786 129.135 434.299 C 103.755 444.811 80.695 460.22 61.27 479.645 C 41.845 499.07 26.436 522.13 15.924 547.51 C 5.411 572.89 0 600.092 0 627.563 C 0 655.033 5.411 682.235 15.924 707.615 C 26.436 732.995 41.845 756.056 61.27 775.48 C 80.695 794.905 103.755 810.314 129.135 820.827 C 154.515 831.339 181.717 836.75 209.188 836.75 Z M 209.188 1255.12 C 181.717 1255.13 154.515 1249.71 129.135 1239.2 C 103.755 1228.69 80.695 1213.28 61.27 1193.86 C 41.845 1174.43 26.436 1151.37 15.924 1125.99 C 5.411 1100.61 0 1073.41 0 1045.94 L 418.375 1045.94 M 209.188 1255.12 C 236.659 1255.12 263.86 1249.71 289.24 1239.2 C 314.62 1228.69 337.681 1213.28 357.105 1193.86 C 376.53 1174.43 391.939 1151.37 402.452 1125.99 C 412.964 1100.61 418.375 1073.41 418.375 1045.94 M 209.188 1255.12 C 181.717 1255.12 154.515 1260.54 129.135 1271.05 C 103.755 1281.56 80.695 1296.97 61.27 1316.39 C 41.845 1335.82 26.436 1358.88 15.924 1384.26 C 5.411 1409.64 0 1436.84 0 1464.31 L 209.188 1464.31 M 209.188 1255.12 L 209.188 1464.31 M 418.375 1045.94 C 418.375 1004.56 430.644 964.12 453.63 929.719 C 476.615 895.318 509.286 868.506 547.51 852.673 C 585.734 836.841 627.795 832.698 668.373 840.77 C 708.951 848.841 746.225 868.764 775.481 898.02 C 804.736 927.275 824.659 964.549 832.731 1005.13 C 840.802 1045.71 836.66 1087.77 820.827 1125.99 C 804.994 1164.21 778.182 1196.88 743.781 1219.87 C 709.38 1242.86 668.936 1255.13 627.563 1255.12 M 418.375 1045.94 L 627.563 1045.94 L 627.563 1255.12 M 418.375 1464.31 C 418.375 1491.78 412.964 1518.99 402.452 1544.37 C 391.939 1569.74 376.53 1592.81 357.105 1612.23 C 337.681 1631.66 314.62 1647.06 289.24 1657.58 C 263.86 1668.09 236.658 1673.5 209.188 1673.5 L 209.188 1464.31 M 418.375 1464.31 L 209.188 1464.31 M 418.375 1464.31 C 418.375 1436.84 423.786 1409.64 434.299 1384.26 C 444.811 1358.88 460.22 1335.82 479.645 1316.39 C 499.07 1296.97 522.13 1281.56 547.51 1271.05 C 572.89 1260.54 600.092 1255.12 627.563 1255.12 M 418.375 1464.31 C 418.375 1491.78 423.786 1518.99 434.299 1544.37 C 444.811 1569.74 460.22 1592.81 479.645 1612.23 C 499.07 1631.66 522.13 1647.06 547.51 1657.58 C 572.89 1668.09 600.092 1673.5 627.563 1673.5 L 627.563 1255.12 M 418.375 1882.69 C 418.375 1841.31 406.106 1800.87 383.121 1766.47 C 360.135 1732.07 327.464 1705.26 289.24 1689.42 C 251.016 1673.59 208.956 1669.45 168.377 1677.52 C 127.799 1685.59 90.525 1705.51 61.27 1734.77 C 32.014 1764.03 12.091 1801.3 4.02 1841.88 C -4.052 1882.46 0.091 1924.52 15.924 1962.74 C 31.757 2000.96 58.569 2033.63 92.969 2056.62 C 127.37 2079.61 167.814 2091.88 209.188 2091.88 L 209.188 1882.69 Z M 418.375 1882.69 C 418.375 1841.31 430.644 1800.87 453.63 1766.47 C 476.615 1732.07 509.286 1705.26 547.51 1689.42 C 585.734 1673.59 627.795 1669.45 668.373 1677.52 C 708.951 1685.59 746.225 1705.51 775.481 1734.77 C 804.736 1764.03 824.659 1801.3 832.731 1841.88 C 840.802 1882.46 836.66 1924.52 820.827 1962.74 C 804.994 2000.96 778.182 2033.63 743.781 2056.62 C 709.38 2079.61 668.936 2091.88 627.563 2091.88 L 627.563 1882.69 Z M 357.105 2153.14 C 327.85 2123.89 290.576 2103.97 249.998 2095.89 C 209.42 2087.82 167.359 2091.97 129.135 2107.8 C 90.911 2123.63 58.24 2150.44 35.255 2184.84 M 627.563 418.375 C 600.092 418.375 572.89 412.964 547.51 402.452 C 522.13 391.939 499.07 376.53 479.645 357.105 C 460.22 337.681 444.811 314.62 434.299 289.24 C 423.786 263.86 418.375 236.658 418.375 209.188 L 836.75 209.188 M 627.563 418.375 C 655.034 418.375 682.235 412.964 707.615 402.452 C 732.995 391.939 756.056 376.53 775.481 357.105 C 794.905 337.681 810.314 314.62 820.827 289.24 C 831.339 263.86 836.75 236.658 836.75 209.188 M 627.563 418.375 C 600.092 418.375 572.89 423.786 547.51 434.299 C 522.13 444.811 499.07 460.22 479.645 479.645 C 460.22 499.07 444.811 522.13 434.299 547.51 C 423.786 572.89 418.375 600.092 418.375 627.563 L 627.563 627.563 M 627.563 418.375 L 627.563 627.563 M 836.75 209.188 C 836.75 181.717 842.161 154.515 852.674 129.135 C 863.186 103.755 878.595 80.695 898.02 61.27 C 917.445 41.845 940.505 26.436 965.885 15.924 C 991.265 5.411 1018.47 0 1045.94 0 L 1045.94 418.375 M 836.75 209.188 C 836.75 236.658 842.161 263.86 852.674 289.24 C 863.186 314.62 878.595 337.681 898.02 357.105 C 917.445 376.53 940.505 391.939 965.885 402.452 C 991.265 412.964 1018.47 418.375 1045.94 418.375 M 627.563 627.563 L 836.75 627.563 C 836.75 655.033 831.339 682.235 820.827 707.615 C 810.314 732.995 794.905 756.056 775.481 775.481 C 756.056 794.905 732.995 810.314 707.615 820.827 C 682.235 831.339 655.033 836.75 627.563 836.75 Z M 1045.94 418.375 C 1073.41 418.375 1100.61 423.786 1125.99 434.299 C 1151.37 444.811 1174.43 460.22 1193.86 479.645 C 1213.28 499.07 1228.69 522.13 1239.2 547.51 C 1249.71 572.89 1255.13 600.092 1255.13 627.563 M 1045.94 418.375 L 1045.94 836.75 C 1073.41 836.75 1100.61 831.339 1125.99 820.827 C 1151.37 810.314 1174.43 794.905 1193.86 775.48 C 1213.28 756.056 1228.69 732.995 1239.2 707.615 C 1249.71 682.235 1255.13 655.033 1255.13 627.563 M 1255.13 627.563 C 1255.13 600.092 1260.54 572.89 1271.05 547.51 C 1281.56 522.13 1296.97 499.07 1316.39 479.645 C 1335.82 460.22 1358.88 444.811 1384.26 434.299 C 1409.64 423.786 1436.84 418.375 1464.31 418.375 M 1255.13 627.563 C 1255.13 655.033 1260.54 682.235 1271.05 707.615 C 1281.56 732.995 1296.97 756.056 1316.39 775.48 C 1335.82 794.905 1358.88 810.314 1384.26 820.827 C 1409.64 831.339 1436.84 836.75 1464.31 836.75 M 1045.94 1255.12 C 1004.56 1255.13 964.12 1242.86 929.719 1219.87 C 895.319 1196.88 868.506 1164.21 852.674 1125.99 C 836.841 1087.77 832.698 1045.71 840.77 1005.13 C 848.841 964.549 868.764 927.275 898.02 898.02 C 927.275 868.764 964.549 848.841 1005.13 840.77 C 1045.71 832.698 1087.77 836.841 1125.99 852.673 C 1164.21 868.506 1196.88 895.318 1219.87 929.719 C 1242.86 964.12 1255.13 1004.56 1255.13 1045.94 L 1045.94 1045.94 Z M 1045.94 1255.12 C 1073.41 1255.12 1100.61 1260.54 1125.99 1271.05 C 1151.37 1281.56 1174.43 1296.97 1193.86 1316.39 C 1213.28 1335.82 1228.69 1358.88 1239.2 1384.26 C 1249.71 1409.64 1255.13 1436.84 1255.13 1464.31 M 1045.94 1255.12 L 1045.94 1673.5 M 1045.94 1673.5 C 1073.41 1673.5 1100.61 1668.09 1125.99 1657.58 C 1151.37 1647.06 1174.43 1631.66 1193.86 1612.23 C 1213.28 1592.81 1228.69 1569.74 1239.2 1544.37 C 1249.71 1518.99 1255.13 1491.78 1255.13 1464.31 M 1045.94 1673.5 C 1018.47 1673.5 991.265 1678.91 965.885 1689.42 C 940.505 1699.94 917.445 1715.34 898.02 1734.77 C 878.595 1754.19 863.186 1777.26 852.674 1802.64 C 842.161 1828.01 836.75 1855.22 836.75 1882.69 L 1045.94 1882.69 M 1045.94 1673.5 L 1045.94 1882.69 M 1255.13 1464.31 C 1255.13 1422.94 1267.39 1382.49 1290.38 1348.09 C 1313.37 1313.69 1346.04 1286.88 1384.26 1271.05 C 1422.48 1255.22 1464.54 1251.07 1505.12 1259.14 C 1545.7 1267.22 1582.98 1287.14 1612.23 1316.39 C 1641.49 1345.65 1661.41 1382.92 1669.48 1423.5 C 1677.55 1464.08 1673.41 1506.14 1657.58 1544.37 C 1641.74 1582.59 1614.93 1615.26 1580.53 1638.25 C 1546.13 1661.23 1505.69 1673.5 1464.31 1673.5 M 1255.13 1464.31 L 1464.31 1464.31 L 1464.31 1673.5 M 1045.94 2091.88 C 1073.41 2091.88 1100.61 2086.46 1125.99 2075.95 C 1151.37 2065.44 1174.43 2050.03 1193.86 2030.61 C 1213.28 2011.18 1228.69 1988.12 1239.2 1962.74 C 1249.71 1937.36 1255.13 1910.16 1255.13 1882.69 L 1045.94 1882.69 M 1045.94 2091.88 L 1045.94 1882.69 M 1045.94 2091.88 C 1018.47 2091.88 991.265 2097.29 965.885 2107.8 C 940.505 2118.31 917.445 2133.72 898.02 2153.14 C 878.595 2172.57 863.186 2195.63 852.674 2221.01 M 1673.5 209.188 C 1673.5 167.814 1661.23 127.37 1638.25 92.969 C 1615.26 58.569 1582.59 31.757 1544.37 15.924 C 1506.14 0.091 1464.08 -4.052 1423.5 4.02 C 1382.92 12.091 1345.65 32.014 1316.39 61.27 C 1287.14 90.525 1267.22 127.799 1259.14 168.377 C 1251.07 208.956 1255.22 251.016 1271.05 289.24 C 1286.88 327.464 1313.69 360.135 1348.09 383.121 C 1382.49 406.106 1422.94 418.375 1464.31 418.375 M 1673.5 209.188 L 1464.31 209.188 L 1464.31 418.375 M 1673.5 209.188 C 1673.5 167.814 1685.77 127.37 1708.75 92.969 C 1731.74 58.569 1764.41 31.756 1802.64 15.924 C 1840.86 0.091 1882.92 -4.052 1923.5 4.02 C 1964.08 12.091 2001.35 32.014 2030.61 61.27 C 2059.86 90.525 2079.78 127.799 2087.86 168.377 C 2095.93 208.956 2091.78 251.016 2075.95 289.24 C 2060.12 327.464 2033.31 360.135 1998.91 383.121 C 1964.51 406.106 1924.06 418.375 1882.69 418.375 M 1673.5 209.188 L 1882.69 209.188 L 1882.69 418.375 M 1464.31 418.375 L 1464.31 836.75 M 1464.31 836.75 C 1491.78 836.75 1518.99 842.161 1544.37 852.673 C 1569.75 863.186 1592.81 878.595 1612.23 898.02 C 1631.66 917.445 1647.06 940.505 1657.58 965.885 C 1668.09 991.265 1673.5 1018.47 1673.5 1045.94 M 1464.31 836.75 L 1464.31 1255.12 C 1491.78 1255.12 1518.99 1249.71 1544.37 1239.2 C 1569.75 1228.69 1592.81 1213.28 1612.23 1193.86 C 1631.66 1174.43 1647.06 1151.37 1657.58 1125.99 C 1668.09 1100.61 1673.5 1073.41 1673.5 1045.94 M 1673.5 1045.94 C 1673.5 1073.41 1678.91 1100.61 1689.42 1125.99 C 1699.94 1151.37 1715.34 1174.43 1734.77 1193.86 C 1754.19 1213.28 1777.26 1228.69 1802.64 1239.2 C 1828.01 1249.71 1855.22 1255.13 1882.69 1255.12 M 1673.5 1045.94 L 2091.88 1045.94 M 1464.31 1673.5 C 1491.78 1673.5 1518.99 1678.91 1544.37 1689.42 C 1569.75 1699.94 1592.81 1715.34 1612.23 1734.77 C 1631.66 1754.19 1647.06 1777.26 1657.58 1802.64 C 1668.09 1828.01 1673.5 1855.22 1673.5 1882.69 C 1673.5 1910.16 1668.09 1937.36 1657.58 1962.74 C 1647.06 1988.12 1631.66 2011.18 1612.23 2030.61 C 1592.81 2050.03 1569.75 2065.44 1544.37 2075.95 C 1518.99 2086.46 1491.78 2091.87 1464.31 2091.88 Z M 1638.25 2184.84 C 1615.26 2150.44 1582.59 2123.63 1544.37 2107.8 C 1506.14 2091.97 1464.08 2087.82 1423.5 2095.89 C 1382.92 2103.97 1345.65 2123.89 1316.39 2153.14 M 1882.69 418.375 C 1855.22 418.375 1828.01 423.786 1802.64 434.299 C 1777.26 444.811 1754.19 460.22 1734.77 479.645 C 1715.34 499.07 1699.94 522.13 1689.42 547.51 C 1678.91 572.89 1673.5 600.092 1673.5 627.563 C 1673.5 655.033 1678.91 682.235 1689.42 707.615 C 1699.94 732.995 1715.34 756.056 1734.77 775.48 C 1754.19 794.905 1777.26 810.314 1802.64 820.827 C 1828.01 831.339 1855.22 836.75 1882.69 836.75 Z M 1882.69 1255.12 C 1910.16 1255.12 1937.36 1249.71 1962.74 1239.2 C 1988.12 1228.69 2011.18 1213.28 2030.61 1193.86 C 2050.03 1174.43 2065.44 1151.37 2075.95 1125.99 C 2086.46 1100.61 2091.88 1073.41 2091.88 1045.94 M 1882.69 1255.12 C 1855.22 1255.12 1828.01 1260.54 1802.64 1271.05 C 1777.26 1281.56 1754.19 1296.97 1734.77 1316.39 C 1715.34 1335.82 1699.94 1358.88 1689.42 1384.26 C 1678.91 1409.64 1673.5 1436.84 1673.5 1464.31 L 1882.69 1464.31 M 1882.69 1255.12 L 1882.69 1464.31 M 2091.88 1045.94 C 2091.88 1004.56 2104.14 964.12 2127.13 929.719 C 2150.12 895.318 2182.79 868.506 2221.01 852.673 C 2259.23 836.841 2301.29 832.698 2341.87 840.77 C 2382.45 848.841 2419.73 868.764 2448.98 898.02 C 2478.24 927.275 2498.16 964.549 2506.23 1005.13 C 2514.3 1045.71 2510.16 1087.77 2494.33 1125.99 C 2478.49 1164.21 2451.68 1196.88 2417.28 1219.87 C 2382.88 1242.86 2342.44 1255.13 2301.06 1255.12 M 2091.88 1045.94 L 2301.06 1045.94 L 2301.06 1255.12 M 2091.88 1464.31 C 2091.88 1491.78 2086.46 1518.99 2075.95 1544.37 C 2065.44 1569.74 2050.03 1592.81 2030.61 1612.23 C 2011.18 1631.66 1988.12 1647.06 1962.74 1657.58 C 1937.36 1668.09 1910.16 1673.5 1882.69 1673.5 L 1882.69 1464.31 M 2091.88 1464.31 L 1882.69 1464.31 M 2091.88 1464.31 C 2091.87 1436.84 2097.29 1409.64 2107.8 1384.26 C 2118.31 1358.88 2133.72 1335.82 2153.14 1316.39 C 2172.57 1296.97 2195.63 1281.56 2221.01 1271.05 C 2246.39 1260.54 2273.59 1255.12 2301.06 1255.12 M 2091.88 1464.31 C 2091.88 1491.78 2097.29 1518.99 2107.8 1544.37 C 2118.31 1569.74 2133.72 1592.81 2153.14 1612.23 C 2172.57 1631.66 2195.63 1647.06 2221.01 1657.58 C 2246.39 1668.09 2273.59 1673.5 2301.06 1673.5 L 2301.06 1255.12 M 2091.88 1882.69 C 2091.88 1841.31 2079.61 1800.87 2056.62 1766.47 C 2033.63 1732.07 2000.96 1705.26 1962.74 1689.42 C 1924.52 1673.59 1882.46 1669.45 1841.88 1677.52 C 1801.3 1685.59 1764.03 1705.51 1734.77 1734.77 C 1705.51 1764.03 1685.59 1801.3 1677.52 1841.88 C 1669.45 1882.46 1673.59 1924.52 1689.42 1962.74 C 1705.26 2000.96 1732.07 2033.63 1766.47 2056.62 C 1800.87 2079.61 1841.31 2091.88 1882.69 2091.88 L 1882.69 1882.69 Z M 2091.88 1882.69 C 2091.88 1841.31 2104.14 1800.87 2127.13 1766.47 C 2150.12 1732.07 2182.79 1705.26 2221.01 1689.42 C 2259.23 1673.59 2301.29 1669.45 2341.87 1677.52 C 2382.45 1685.59 2419.73 1705.51 2448.98 1734.77 C 2478.24 1764.03 2498.16 1801.3 2506.23 1841.88 C 2514.3 1882.46 2510.16 1924.52 2494.33 1962.74 C 2478.49 2000.96 2451.68 2033.63 2417.28 2056.62 C 2382.88 2079.61 2342.44 2091.88 2301.06 2091.88 L 2301.06 1882.69 Z M 2030.61 2153.14 C 2001.35 2123.89 1964.08 2103.97 1923.5 2095.89 C 1882.92 2087.82 1840.86 2091.97 1802.64 2107.8 C 1764.41 2123.63 1731.74 2150.44 1708.75 2184.84 M 2301.06 418.375 C 2273.59 418.375 2246.39 412.964 2221.01 402.452 C 2195.63 391.939 2172.57 376.53 2153.14 357.105 C 2133.72 337.681 2118.31 314.62 2107.8 289.24 C 2097.29 263.86 2091.87 236.658 2091.87 209.188 L 2510.25 209.188 M 2301.06 418.375 C 2328.53 418.375 2355.74 412.964 2381.11 402.452 C 2406.49 391.939 2429.56 376.53 2448.98 357.105 C 2468.41 337.681 2483.81 314.62 2494.33 289.24 C 2504.84 263.86 2510.25 236.658 2510.25 209.188 M 2301.06 418.375 C 2273.59 418.375 2246.39 423.786 2221.01 434.299 C 2195.63 444.811 2172.57 460.22 2153.14 479.645 C 2133.72 499.07 2118.31 522.13 2107.8 547.51 C 2097.29 572.89 2091.87 600.092 2091.88 627.563 L 2301.06 627.563 M 2301.06 418.375 L 2301.06 627.563 M 2510.25 209.188 C 2510.25 181.717 2515.66 154.515 2526.17 129.135 C 2536.69 103.755 2552.09 80.695 2571.52 61.27 C 2590.94 41.845 2614.01 26.436 2639.39 15.924 C 2664.76 5.411 2691.97 0 2719.44 0 L 2719.44 418.375 M 2510.25 209.188 C 2510.25 236.658 2515.66 263.86 2526.17 289.24 C 2536.69 314.62 2552.09 337.681 2571.52 357.105 C 2590.94 376.53 2614.01 391.939 2639.39 402.452 C 2664.76 412.964 2691.97 418.375 2719.44 418.375 M 2301.06 627.563 L 2510.25 627.563 C 2510.25 655.033 2504.84 682.235 2494.33 707.615 C 2483.81 732.995 2468.41 756.056 2448.98 775.481 C 2429.56 794.905 2406.49 810.314 2381.11 820.827 C 2355.74 831.339 2328.53 836.75 2301.06 836.75 Z M 2719.44 418.375 C 2746.91 418.375 2774.11 423.786 2799.49 434.299 C 2824.87 444.811 2847.93 460.22 2867.36 479.645 C 2886.78 499.07 2902.19 522.13 2912.7 547.51 C 2923.21 572.89 2928.62 600.092 2928.62 627.563 M 2719.44 418.375 L 2719.44 836.75 C 2746.91 836.75 2774.11 831.339 2799.49 820.827 C 2824.87 810.314 2847.93 794.905 2867.36 775.48 C 2886.78 756.056 2902.19 732.995 2912.7 707.615 C 2923.21 682.235 2928.62 655.033 2928.62 627.563 M 2928.62 627.563 C 2928.62 600.092 2934.04 572.89 2944.55 547.51 C 2955.06 522.13 2970.47 499.07 2989.89 479.645 C 3009.32 460.22 3032.38 444.811 3057.76 434.299 C 3083.14 423.786 3110.34 418.375 3137.81 418.375 M 2928.62 627.563 C 2928.62 655.033 2934.04 682.235 2944.55 707.615 C 2955.06 732.995 2970.47 756.056 2989.89 775.48 C 3009.32 794.905 3032.38 810.314 3057.76 820.827 C 3083.14 831.339 3110.34 836.75 3137.81 836.75 M 2719.44 1255.12 C 2678.06 1255.13 2637.62 1242.86 2603.22 1219.87 C 2568.82 1196.88 2542.01 1164.21 2526.17 1125.99 C 2510.34 1087.77 2506.2 1045.71 2514.27 1005.13 C 2522.34 964.549 2542.26 927.275 2571.52 898.02 C 2600.77 868.764 2638.05 848.841 2678.63 840.77 C 2719.21 832.698 2761.27 836.841 2799.49 852.673 C 2837.71 868.506 2870.38 895.318 2893.37 929.719 C 2916.36 964.12 2928.62 1004.56 2928.62 1045.94 L 2719.44 1045.94 Z M 2719.44 1255.12 C 2746.91 1255.12 2774.11 1260.54 2799.49 1271.05 C 2824.87 1281.56 2847.93 1296.97 2867.36 1316.39 C 2886.78 1335.82 2902.19 1358.88 2912.7 1384.26 C 2923.21 1409.64 2928.62 1436.84 2928.62 1464.31 M 2719.44 1255.12 L 2719.44 1673.5 M 2719.44 1673.5 C 2746.91 1673.5 2774.11 1668.09 2799.49 1657.58 C 2824.87 1647.06 2847.93 1631.66 2867.36 1612.23 C 2886.78 1592.81 2902.19 1569.74 2912.7 1544.37 C 2923.21 1518.99 2928.62 1491.78 2928.62 1464.31 M 2719.44 1673.5 C 2691.97 1673.5 2664.76 1678.91 2639.39 1689.42 C 2614.01 1699.94 2590.94 1715.34 2571.52 1734.77 C 2552.09 1754.19 2536.69 1777.26 2526.17 1802.64 C 2515.66 1828.01 2510.25 1855.22 2510.25 1882.69 L 2719.44 1882.69 M 2719.44 1673.5 L 2719.44 1882.69 M 2928.62 1464.31 C 2928.62 1422.94 2940.89 1382.49 2963.88 1348.09 C 2986.87 1313.69 3019.54 1286.88 3057.76 1271.05 C 3095.98 1255.22 3138.04 1251.07 3178.62 1259.14 C 3219.2 1267.22 3256.48 1287.14 3285.73 1316.39 C 3314.99 1345.65 3334.91 1382.92 3342.98 1423.5 C 3351.05 1464.08 3346.91 1506.14 3331.08 1544.37 C 3315.24 1582.59 3288.43 1615.26 3254.03 1638.25 C 3219.63 1661.23 3179.19 1673.5 3137.81 1673.5 M 2928.62 1464.31 L 3137.81 1464.31 L 3137.81 1673.5 M 2719.44 2091.88 C 2746.91 2091.88 2774.11 2086.46 2799.49 2075.95 C 2824.87 2065.44 2847.93 2050.03 2867.36 2030.61 C 2886.78 2011.18 2902.19 1988.12 2912.7 1962.74 C 2923.21 1937.36 2928.62 1910.16 2928.62 1882.69 L 2719.44 1882.69 M 2719.44 2091.88 L 2719.44 1882.69 M 2719.44 2091.88 C 2691.97 2091.88 2664.76 2097.29 2639.39 2107.8 C 2614.01 2118.31 2590.94 2133.72 2571.52 2153.14 C 2552.09 2172.57 2536.69 2195.63 2526.17 2221.01 M 3347 209.188 C 3347 167.814 3334.73 127.37 3311.75 92.969 C 3288.76 58.569 3256.09 31.757 3217.87 15.924 C 3179.64 0.091 3137.58 -4.052 3097 4.02 C 3056.42 12.091 3019.15 32.014 2989.89 61.27 C 2960.64 90.525 2940.72 127.799 2932.64 168.377 C 2924.57 208.956 2928.72 251.016 2944.55 289.24 C 2960.38 327.464 2987.19 360.135 3021.59 383.121 C 3055.99 406.106 3096.44 418.375 3137.81 418.375 M 3347 209.188 L 3137.81 209.188 L 3137.81 418.375 M 3347 209.188 C 3347 167.814 3359.27 127.37 3382.25 92.969 C 3405.24 58.569 3437.91 31.756 3476.14 15.924 C 3514.36 0.091 3556.42 -4.052 3597 4.02 C 3637.58 12.091 3674.85 32.014 3704.11 61.27 C 3733.36 90.525 3753.28 127.799 3761.36 168.377 C 3769.43 208.956 3765.28 251.016 3749.45 289.24 C 3733.62 327.464 3706.81 360.135 3672.41 383.121 C 3638.01 406.106 3597.56 418.375 3556.19 418.375 M 3347 209.188 L 3556.19 209.188 L 3556.19 418.375 M 3137.81 418.375 L 3137.81 836.75 M 3137.81 836.75 C 3165.28 836.75 3192.49 842.161 3217.87 852.673 C 3243.25 863.186 3266.31 878.595 3285.73 898.02 C 3305.16 917.445 3320.56 940.505 3331.08 965.885 C 3341.59 991.265 3347 1018.47 3347 1045.94 M 3137.81 836.75 L 3137.81 1255.12 C 3165.28 1255.12 3192.49 1249.71 3217.87 1239.2 C 3243.25 1228.69 3266.31 1213.28 3285.73 1193.86 C 3305.16 1174.43 3320.56 1151.37 3331.08 1125.99 C 3341.59 1100.61 3347 1073.41 3347 1045.94 M 3347 1045.94 C 3347 1073.41 3352.41 1100.61 3362.92 1125.99 C 3373.44 1151.37 3388.84 1174.43 3408.27 1193.86 C 3427.69 1213.28 3450.76 1228.69 3476.14 1239.2 C 3501.51 1249.71 3528.72 1255.13 3556.19 1255.12 M 3347 1045.94 L 3765.38 1045.94 M 3137.81 1673.5 C 3165.28 1673.5 3192.49 1678.91 3217.87 1689.42 C 3243.25 1699.94 3266.31 1715.34 3285.73 1734.77 C 3305.16 1754.19 3320.56 1777.26 3331.08 1802.64 C 3341.59 1828.01 3347 1855.22 3347 1882.69 C 3347 1910.16 3341.59 1937.36 3331.08 1962.74 C 3320.56 1988.12 3305.16 2011.18 3285.73 2030.61 C 3266.31 2050.03 3243.25 2065.44 3217.87 2075.95 C 3192.49 2086.46 3165.28 2091.87 3137.81 2091.88 Z M 3311.75 2184.84 C 3288.76 2150.44 3256.09 2123.63 3217.87 2107.8 C 3179.64 2091.97 3137.58 2087.82 3097 2095.89 C 3056.42 2103.97 3019.15 2123.89 2989.89 2153.14 M 3556.19 418.375 C 3528.72 418.375 3501.51 423.786 3476.14 434.299 C 3450.76 444.811 3427.69 460.22 3408.27 479.645 C 3388.84 499.07 3373.44 522.13 3362.92 547.51 C 3352.41 572.89 3347 600.092 3347 627.563 C 3347 655.033 3352.41 682.235 3362.92 707.615 C 3373.44 732.995 3388.84 756.056 3408.27 775.48 C 3427.69 794.905 3450.76 810.314 3476.14 820.827 C 3501.51 831.339 3528.72 836.75 3556.19 836.75 Z M 3556.19 1255.12 C 3583.66 1255.12 3610.86 1249.71 3636.24 1239.2 C 3661.62 1228.69 3684.68 1213.28 3704.11 1193.86 C 3723.53 1174.43 3738.94 1151.37 3749.45 1125.99 C 3759.96 1100.61 3765.38 1073.41 3765.38 1045.94 M 3556.19 1255.12 C 3528.72 1255.12 3501.51 1260.54 3476.14 1271.05 C 3450.76 1281.56 3427.69 1296.97 3408.27 1316.39 C 3388.84 1335.82 3373.44 1358.88 3362.92 1384.26 C 3352.41 1409.64 3347 1436.84 3347 1464.31 L 3556.19 1464.31 M 3556.19 1255.12 L 3556.19 1464.31 M 3765.38 1045.94 C 3765.38 1004.56 3777.64 964.12 3800.63 929.719 C 3823.62 895.318 3856.29 868.506 3894.51 852.673 C 3932.73 836.841 3974.79 832.698 4015.37 840.77 M 3765.38 1045.94 L 3974.56 1045.94 L 3974.56 1255.12 M 3765.38 1464.31 C 3765.38 1491.78 3759.96 1518.99 3749.45 1544.37 C 3738.94 1569.74 3723.53 1592.81 3704.11 1612.23 C 3684.68 1631.66 3661.62 1647.06 3636.24 1657.58 C 3610.86 1668.09 3583.66 1673.5 3556.19 1673.5 L 3556.19 1464.31 M 3765.38 1464.31 L 3556.19 1464.31 M 3765.38 1464.31 C 3765.37 1436.84 3770.79 1409.64 3781.3 1384.26 C 3791.81 1358.88 3807.22 1335.82 3826.64 1316.39 C 3846.07 1296.97 3869.13 1281.56 3894.51 1271.05 C 3919.89 1260.54 3947.09 1255.12 3974.56 1255.12 M 3765.38 1464.31 C 3765.38 1491.78 3770.79 1518.99 3781.3 1544.37 C 3791.81 1569.74 3807.22 1592.81 3826.64 1612.23 C 3846.07 1631.66 3869.13 1647.06 3894.51 1657.58 C 3919.89 1668.09 3947.09 1673.5 3974.56 1673.5 L 3974.56 1255.12 M 3765.38 1882.69 C 3765.38 1841.31 3753.11 1800.87 3730.12 1766.47 C 3707.13 1732.07 3674.46 1705.26 3636.24 1689.42 C 3598.02 1673.59 3555.96 1669.45 3515.38 1677.52 C 3474.8 1685.59 3437.52 1705.51 3408.27 1734.77 C 3379.01 1764.03 3359.09 1801.3 3351.02 1841.88 C 3342.95 1882.46 3347.09 1924.52 3362.92 1962.74 C 3378.76 2000.96 3405.57 2033.63 3439.97 2056.62 C 3474.37 2079.61 3514.81 2091.88 3556.19 2091.88 L 3556.19 1882.69 Z M 3765.38 1882.69 C 3765.38 1841.31 3777.64 1800.87 3800.63 1766.47 C 3823.62 1732.07 3856.29 1705.26 3894.51 1689.42 C 3932.73 1673.59 3974.79 1669.45 4015.37 1677.52 M 3765.38 1882.69 L 3974.56 1882.69 L 3974.56 2091.88 M 3704.11 2153.14 C 3674.85 2123.89 3637.58 2103.97 3597 2095.89 C 3556.42 2087.82 3514.36 2091.97 3476.14 2107.8 C 3437.91 2123.63 3405.24 2150.44 3382.25 2184.84 M 3765.38 209.188 C 3765.38 236.658 3770.79 263.86 3781.3 289.24 C 3791.81 314.62 3807.22 337.681 3826.64 357.105 C 3846.07 376.53 3869.13 391.939 3894.51 402.452 C 3919.89 412.964 3947.09 418.375 3974.56 418.375 M 3974.56 418.375 C 3947.09 418.375 3919.89 423.786 3894.51 434.299 C 3869.13 444.811 3846.07 460.22 3826.64 479.645 C 3807.22 499.07 3791.81 522.13 3781.3 547.51 C 3770.79 572.89 3765.37 600.092 3765.38 627.563 L 3974.56 627.563 M 3974.56 418.375 L 3974.56 627.563 M 3974.56 836.75 L 3974.56 627.563" fill="transparent" stroke="rgb(0,0,0)" stroke-miterlimit="10" stroke-dasharray="3,3"></path></g></svg>